<mxfile host="65bd71144e">
    <diagram id="0RzukSG1CBEZ-lANubEv" name="第 1 页">
        <mxGraphModel dx="3060" dy="945" grid="1" gridSize="10" guides="1" tooltips="1" connect="1" arrows="1" fold="1" page="1" pageScale="1" pageWidth="827" pageHeight="1169" math="0" shadow="0">
            <root>
                <mxCell id="0"/>
                <mxCell id="1" parent="0"/>
                <mxCell id="9" value="" style="edgeStyle=none;html=1;" parent="1" source="2" target="3" edge="1">
                    <mxGeometry relative="1" as="geometry"/>
                </mxCell>
                <mxCell id="2" value="&lt;font style=&quot;font-size: 24px;&quot;&gt;开始&lt;/font&gt;" style="rounded=1;whiteSpace=wrap;html=1;arcSize=50;" parent="1" vertex="1">
                    <mxGeometry x="330" y="20" width="120" height="60" as="geometry"/>
                </mxCell>
                <mxCell id="10" value="" style="edgeStyle=none;html=1;" parent="1" source="3" target="7" edge="1">
                    <mxGeometry relative="1" as="geometry"/>
                </mxCell>
                <mxCell id="3" value="&lt;font style=&quot;font-size: 24px;&quot;&gt;申请向内核资源开销&lt;/font&gt;" style="rounded=0;whiteSpace=wrap;html=1;" parent="1" vertex="1">
                    <mxGeometry x="320" y="120" width="140" height="70" as="geometry"/>
                </mxCell>
                <mxCell id="4" value="&lt;font style=&quot;font-size: 24px;&quot;&gt;连接者判断&lt;/font&gt;" style="html=1;whiteSpace=wrap;aspect=fixed;shape=isoRectangle;" parent="1" vertex="1">
                    <mxGeometry x="315" y="440" width="150" height="90" as="geometry"/>
                </mxCell>
                <mxCell id="11" value="" style="edgeStyle=none;html=1;" parent="1" source="7" target="8" edge="1">
                    <mxGeometry relative="1" as="geometry"/>
                </mxCell>
                <mxCell id="7" value="&lt;font style=&quot;font-size: 24px;&quot;&gt;建立TCP服务器&lt;/font&gt;" style="rounded=0;whiteSpace=wrap;html=1;" parent="1" vertex="1">
                    <mxGeometry x="330" y="230" width="120" height="60" as="geometry"/>
                </mxCell>
                <mxCell id="12" value="" style="edgeStyle=none;html=1;" parent="1" source="8" target="4" edge="1">
                    <mxGeometry relative="1" as="geometry"/>
                </mxCell>
                <mxCell id="8" value="&lt;font style=&quot;font-size: 24px;&quot;&gt;主线程等待&lt;br&gt;对等套接字连接&lt;/font&gt;" style="rounded=0;whiteSpace=wrap;html=1;" parent="1" vertex="1">
                    <mxGeometry x="310" y="310" width="160" height="90" as="geometry"/>
                </mxCell>
                <mxCell id="32" value="" style="edgeStyle=none;html=1;" parent="1" source="13" target="25" edge="1">
                    <mxGeometry relative="1" as="geometry"/>
                </mxCell>
                <mxCell id="13" value="&lt;font style=&quot;font-size: 24px;&quot;&gt;下位机&lt;br&gt;拱棚节点&lt;/font&gt;" style="rounded=0;whiteSpace=wrap;html=1;" parent="1" vertex="1">
                    <mxGeometry x="120" y="580" width="120" height="60" as="geometry"/>
                </mxCell>
                <mxCell id="33" value="" style="edgeStyle=none;html=1;" parent="1" source="14" target="26" edge="1">
                    <mxGeometry relative="1" as="geometry"/>
                </mxCell>
                <mxCell id="14" value="&lt;font style=&quot;font-size: 24px;&quot;&gt;上位机&lt;br&gt;用户终端&lt;/font&gt;" style="rounded=0;whiteSpace=wrap;html=1;" parent="1" vertex="1">
                    <mxGeometry x="540" y="580" width="120" height="60" as="geometry"/>
                </mxCell>
                <mxCell id="15" value="&lt;font style=&quot;font-size: 24px;&quot;&gt;节点线程1&lt;br&gt;读取来自下位机的&lt;br&gt;TCP数据包并存储&lt;br&gt;为日志数据文件&lt;/font&gt;" style="rounded=0;whiteSpace=wrap;html=1;" parent="1" vertex="1">
                    <mxGeometry x="-90" y="920" width="240" height="100" as="geometry"/>
                </mxCell>
                <mxCell id="16" value="&lt;font style=&quot;font-size: 24px;&quot;&gt;识别用户的拱棚&lt;br&gt;目标节点&lt;/font&gt;" style="rounded=0;whiteSpace=wrap;html=1;" parent="1" vertex="1">
                    <mxGeometry x="490" y="910" width="210" height="60" as="geometry"/>
                </mxCell>
                <mxCell id="78" style="edgeStyle=none;html=1;exitX=0.5;exitY=1;exitDx=0;exitDy=0;fontSize=24;" edge="1" parent="1" source="17">
                    <mxGeometry relative="1" as="geometry">
                        <mxPoint x="510.3529411764707" y="1120" as="targetPoint"/>
                    </mxGeometry>
                </mxCell>
                <mxCell id="17" value="&lt;font style=&quot;font-size: 24px;&quot;&gt;用户子线程1&lt;br&gt;读取并发送相应节点&lt;br&gt;的日志数据文件&lt;/font&gt;" style="whiteSpace=wrap;html=1;rounded=0;" parent="1" vertex="1">
                    <mxGeometry x="414" y="1035" width="200" height="125" as="geometry"/>
                </mxCell>
                <mxCell id="19" value="&lt;font style=&quot;font-size: 24px;&quot;&gt;用户子线程2&lt;br&gt;用户是否&lt;br&gt;夺取目标控制权&lt;br&gt;&lt;/font&gt;" style="html=1;whiteSpace=wrap;aspect=fixed;shape=isoRectangle;" parent="1" vertex="1">
                    <mxGeometry x="650" y="1020" width="180" height="108" as="geometry"/>
                </mxCell>
                <mxCell id="20" value="&lt;font style=&quot;font-size: 24px;&quot;&gt;转发用户控制信息&lt;br&gt;到节点线程2&lt;/font&gt;" style="rounded=0;whiteSpace=wrap;html=1;" parent="1" vertex="1">
                    <mxGeometry x="630" y="1360" width="210" height="60" as="geometry"/>
                </mxCell>
                <mxCell id="80" value="" style="edgeStyle=none;html=1;fontSize=24;exitX=0.319;exitY=0.996;exitDx=0;exitDy=0;exitPerimeter=0;" edge="1" parent="1" source="21" target="22">
                    <mxGeometry relative="1" as="geometry"/>
                </mxCell>
                <mxCell id="21" value="&lt;font style=&quot;font-size: 24px;&quot;&gt;节点线程2&lt;br&gt;等待用户控制信息&lt;/font&gt;" style="rounded=0;whiteSpace=wrap;html=1;" parent="1" vertex="1">
                    <mxGeometry x="170" y="920" width="160" height="80" as="geometry"/>
                </mxCell>
                <mxCell id="22" value="&lt;font style=&quot;font-size: 24px;&quot;&gt;转发用户控制&lt;br&gt;信息到节点&lt;/font&gt;" style="rounded=0;whiteSpace=wrap;html=1;" parent="1" vertex="1">
                    <mxGeometry x="140" y="1035" width="160" height="60" as="geometry"/>
                </mxCell>
                <mxCell id="64" value="" style="edgeStyle=none;html=1;" parent="1" source="23" target="45" edge="1">
                    <mxGeometry relative="1" as="geometry"/>
                </mxCell>
                <mxCell id="23" value="&lt;font style=&quot;font-size: 24px;&quot;&gt;是否&lt;br&gt;释放控制权&lt;br&gt;&lt;/font&gt;" style="html=1;whiteSpace=wrap;aspect=fixed;shape=isoRectangle;" parent="1" vertex="1">
                    <mxGeometry x="660" y="1140" width="150" height="90" as="geometry"/>
                </mxCell>
                <mxCell id="39" value="" style="edgeStyle=none;html=1;" parent="1" source="25" target="35" edge="1">
                    <mxGeometry relative="1" as="geometry"/>
                </mxCell>
                <mxCell id="25" value="&lt;font style=&quot;font-size: 24px;&quot;&gt;是否离线&lt;/font&gt;" style="html=1;whiteSpace=wrap;aspect=fixed;shape=isoRectangle;" parent="1" vertex="1">
                    <mxGeometry x="100" y="670" width="150" height="90" as="geometry"/>
                </mxCell>
                <mxCell id="40" value="" style="edgeStyle=none;html=1;" parent="1" source="26" target="37" edge="1">
                    <mxGeometry relative="1" as="geometry"/>
                </mxCell>
                <mxCell id="26" value="&lt;font style=&quot;font-size: 24px;&quot;&gt;是否离线&lt;/font&gt;" style="html=1;whiteSpace=wrap;aspect=fixed;shape=isoRectangle;" parent="1" vertex="1">
                    <mxGeometry x="525" y="670" width="150" height="90" as="geometry"/>
                </mxCell>
                <mxCell id="27" value="&lt;font style=&quot;font-size: 24px;&quot;&gt;释放线程&lt;br&gt;回收内存资源&lt;/font&gt;" style="shape=ext;double=1;rounded=0;whiteSpace=wrap;html=1;" parent="1" vertex="1">
                    <mxGeometry x="320" y="1710" width="160" height="80" as="geometry"/>
                </mxCell>
                <mxCell id="28" value="&lt;font style=&quot;font-size: 24px;&quot;&gt;告知用户端&lt;br&gt;节点离线&lt;/font&gt;" style="shape=ext;double=1;rounded=0;whiteSpace=wrap;html=1;" parent="1" vertex="1">
                    <mxGeometry x="130" y="1560" width="160" height="80" as="geometry"/>
                </mxCell>
                <mxCell id="29" value="&lt;font style=&quot;font-size: 24px;&quot;&gt;服务器记录&lt;br&gt;用户端离线&lt;/font&gt;" style="shape=ext;double=1;rounded=0;whiteSpace=wrap;html=1;" parent="1" vertex="1">
                    <mxGeometry x="500" y="1540" width="170" height="80" as="geometry"/>
                </mxCell>
                <mxCell id="30" value="" style="edgeStyle=elbowEdgeStyle;elbow=vertical;endArrow=classic;html=1;curved=0;rounded=0;endSize=8;startSize=8;entryX=0.5;entryY=0;entryDx=0;entryDy=0;exitX=-0.001;exitY=0.495;exitDx=0;exitDy=0;exitPerimeter=0;" parent="1" source="4" target="13" edge="1">
                    <mxGeometry width="50" height="50" relative="1" as="geometry">
                        <mxPoint x="310" y="480" as="sourcePoint"/>
                        <mxPoint x="230" y="520" as="targetPoint"/>
                        <Array as="points">
                            <mxPoint x="300" y="485"/>
                            <mxPoint x="250" y="480"/>
                            <mxPoint x="270" y="490"/>
                            <mxPoint x="230" y="480"/>
                        </Array>
                    </mxGeometry>
                </mxCell>
                <mxCell id="31" value="" style="edgeStyle=elbowEdgeStyle;elbow=vertical;endArrow=classic;html=1;curved=0;rounded=0;endSize=8;startSize=8;entryX=0.5;entryY=0;entryDx=0;entryDy=0;exitX=-0.001;exitY=0.495;exitDx=0;exitDy=0;exitPerimeter=0;" parent="1" edge="1">
                    <mxGeometry width="50" height="50" relative="1" as="geometry">
                        <mxPoint x="465" y="484.55000000000007" as="sourcePoint"/>
                        <mxPoint x="599.85" y="580" as="targetPoint"/>
                        <Array as="points">
                            <mxPoint x="479.85000000000014" y="485"/>
                            <mxPoint x="529.8500000000001" y="480"/>
                            <mxPoint x="509.85000000000014" y="490"/>
                            <mxPoint x="549.8500000000001" y="480"/>
                        </Array>
                    </mxGeometry>
                </mxCell>
                <mxCell id="35" value="&lt;font style=&quot;font-size: 24px;&quot;&gt;未离线&lt;br&gt;创建两条分离线程&lt;/font&gt;" style="rounded=0;whiteSpace=wrap;html=1;" parent="1" vertex="1">
                    <mxGeometry x="70" y="790" width="200" height="60" as="geometry"/>
                </mxCell>
                <mxCell id="36" value="&lt;font style=&quot;font-size: 24px;&quot;&gt;已离线&lt;/font&gt;" style="rounded=0;whiteSpace=wrap;html=1;" parent="1" vertex="1">
                    <mxGeometry x="-80" y="790" width="120" height="60" as="geometry"/>
                </mxCell>
                <mxCell id="41" value="" style="edgeStyle=none;html=1;" parent="1" source="37" target="16" edge="1">
                    <mxGeometry relative="1" as="geometry"/>
                </mxCell>
                <mxCell id="37" value="&lt;font style=&quot;font-size: 24px;&quot;&gt;未离线&lt;br&gt;创建两条分离线程&lt;/font&gt;" style="rounded=0;whiteSpace=wrap;html=1;" parent="1" vertex="1">
                    <mxGeometry x="510" y="790" width="170" height="90" as="geometry"/>
                </mxCell>
                <mxCell id="38" value="&lt;font style=&quot;font-size: 24px;&quot;&gt;已离线&lt;/font&gt;" style="rounded=0;whiteSpace=wrap;html=1;" parent="1" vertex="1">
                    <mxGeometry x="730" y="790" width="120" height="60" as="geometry"/>
                </mxCell>
                <mxCell id="65" value="" style="edgeStyle=none;html=1;" parent="1" source="44" target="20" edge="1">
                    <mxGeometry relative="1" as="geometry"/>
                </mxCell>
                <mxCell id="44" value="&lt;font style=&quot;font-size: 24px;&quot;&gt;不释放控制权&lt;/font&gt;" style="rounded=0;whiteSpace=wrap;html=1;" parent="1" vertex="1">
                    <mxGeometry x="675" y="1260" width="120" height="60" as="geometry"/>
                </mxCell>
                <mxCell id="45" value="&lt;font style=&quot;font-size: 24px;&quot;&gt;释放控制权&lt;/font&gt;" style="rounded=0;whiteSpace=wrap;html=1;" parent="1" vertex="1">
                    <mxGeometry x="840" y="1155" width="120" height="60" as="geometry"/>
                </mxCell>
                <mxCell id="46" value="" style="edgeStyle=segmentEdgeStyle;endArrow=classic;html=1;curved=0;rounded=0;endSize=8;startSize=8;exitX=0.001;exitY=0.504;exitDx=0;exitDy=0;exitPerimeter=0;entryX=0.5;entryY=0;entryDx=0;entryDy=0;" parent="1" source="25" target="36" edge="1">
                    <mxGeometry width="50" height="50" relative="1" as="geometry">
                        <mxPoint x="89.99882352941171" y="720" as="sourcePoint"/>
                        <mxPoint x="39.99882352941171" y="770" as="targetPoint"/>
                        <Array as="points">
                            <mxPoint x="-20" y="715"/>
                        </Array>
                    </mxGeometry>
                </mxCell>
                <mxCell id="47" value="" style="edgeStyle=segmentEdgeStyle;endArrow=classic;html=1;curved=0;rounded=0;endSize=8;startSize=8;exitX=0;exitY=0.5;exitDx=0;exitDy=0;entryX=0.417;entryY=0;entryDx=0;entryDy=0;entryPerimeter=0;" parent="1" source="36" target="28" edge="1">
                    <mxGeometry width="50" height="50" relative="1" as="geometry">
                        <mxPoint x="-40" y="880" as="sourcePoint"/>
                        <mxPoint x="-23" y="1610" as="targetPoint"/>
                        <Array as="points">
                            <mxPoint x="-130" y="820"/>
                            <mxPoint x="-130" y="1320"/>
                            <mxPoint x="197" y="1320"/>
                        </Array>
                    </mxGeometry>
                </mxCell>
                <mxCell id="48" value="" style="edgeStyle=segmentEdgeStyle;endArrow=classic;html=1;curved=0;rounded=0;endSize=8;startSize=8;entryX=0.5;entryY=0;entryDx=0;entryDy=0;" parent="1" target="27" edge="1">
                    <mxGeometry width="50" height="50" relative="1" as="geometry">
                        <mxPoint x="190" y="1639" as="sourcePoint"/>
                        <mxPoint x="379.9969230769219" y="1700" as="targetPoint"/>
                        <Array as="points">
                            <mxPoint x="190" y="1670"/>
                            <mxPoint x="380" y="1670"/>
                        </Array>
                    </mxGeometry>
                </mxCell>
                <mxCell id="50" value="" style="edgeStyle=segmentEdgeStyle;endArrow=classic;html=1;curved=0;rounded=0;endSize=8;startSize=8;exitX=0.793;exitY=1.017;exitDx=0;exitDy=0;exitPerimeter=0;" parent="1" source="35" edge="1">
                    <mxGeometry width="50" height="50" relative="1" as="geometry">
                        <mxPoint x="210" y="870" as="sourcePoint"/>
                        <mxPoint x="270" y="920" as="targetPoint"/>
                        <Array as="points">
                            <mxPoint x="210" y="880"/>
                            <mxPoint x="270" y="880"/>
                        </Array>
                    </mxGeometry>
                </mxCell>
                <mxCell id="51" value="" style="edgeStyle=segmentEdgeStyle;endArrow=classic;html=1;curved=0;rounded=0;endSize=8;startSize=8;exitX=0.197;exitY=1.027;exitDx=0;exitDy=0;exitPerimeter=0;" parent="1" source="35" edge="1">
                    <mxGeometry width="50" height="50" relative="1" as="geometry">
                        <mxPoint x="140.01449275362302" y="870.0044927536235" as="sourcePoint"/>
                        <mxPoint x="90.01449275362302" y="920.0044927536235" as="targetPoint"/>
                        <Array as="points">
                            <mxPoint x="140" y="852"/>
                            <mxPoint x="140" y="880"/>
                            <mxPoint x="90" y="880"/>
                        </Array>
                    </mxGeometry>
                </mxCell>
                <mxCell id="52" value="" style="edgeStyle=segmentEdgeStyle;endArrow=classic;html=1;curved=0;rounded=0;endSize=8;startSize=8;exitX=0.5;exitY=1;exitDx=0;exitDy=0;" parent="1" source="15" edge="1">
                    <mxGeometry width="50" height="50" relative="1" as="geometry">
                        <mxPoint x="90" y="1000" as="sourcePoint"/>
                        <mxPoint x="180" y="650" as="targetPoint"/>
                        <Array as="points">
                            <mxPoint x="90" y="1050"/>
                            <mxPoint x="-120" y="1050"/>
                            <mxPoint x="-120" y="650"/>
                        </Array>
                    </mxGeometry>
                </mxCell>
                <mxCell id="53" value="" style="edgeStyle=segmentEdgeStyle;endArrow=classic;html=1;curved=0;rounded=0;endSize=8;startSize=8;exitX=0.5;exitY=1;exitDx=0;exitDy=0;" parent="1" source="22" edge="1">
                    <mxGeometry width="50" height="50" relative="1" as="geometry">
                        <mxPoint x="270" y="1100" as="sourcePoint"/>
                        <mxPoint x="180" y="650" as="targetPoint"/>
                        <Array as="points">
                            <mxPoint x="220" y="1140"/>
                            <mxPoint x="350" y="1140"/>
                            <mxPoint x="350" y="650"/>
                        </Array>
                    </mxGeometry>
                </mxCell>
                <mxCell id="54" value="" style="edgeStyle=segmentEdgeStyle;endArrow=classic;html=1;curved=0;rounded=0;endSize=8;startSize=8;exitX=0.5;exitY=1;exitDx=0;exitDy=0;" parent="1" source="17" edge="1">
                    <mxGeometry width="50" height="50" relative="1" as="geometry">
                        <mxPoint x="529.96" y="1120" as="sourcePoint"/>
                        <mxPoint x="600" y="650" as="targetPoint"/>
                        <Array as="points">
                            <mxPoint x="510" y="1160"/>
                            <mxPoint x="510" y="1190"/>
                            <mxPoint x="380" y="1190"/>
                            <mxPoint x="380" y="650"/>
                        </Array>
                    </mxGeometry>
                </mxCell>
                <mxCell id="55" value="" style="edgeStyle=segmentEdgeStyle;endArrow=classic;html=1;curved=0;rounded=0;endSize=8;startSize=8;exitX=0.993;exitY=0.48;exitDx=0;exitDy=0;exitPerimeter=0;" parent="1" source="26" edge="1">
                    <mxGeometry width="50" height="50" relative="1" as="geometry">
                        <mxPoint x="745" y="740" as="sourcePoint"/>
                        <mxPoint x="795" y="790" as="targetPoint"/>
                    </mxGeometry>
                </mxCell>
                <mxCell id="56" value="" style="edgeStyle=segmentEdgeStyle;endArrow=classic;html=1;curved=0;rounded=0;endSize=8;startSize=8;exitX=0.832;exitY=1.012;exitDx=0;exitDy=0;exitPerimeter=0;" parent="1" source="16" target="19" edge="1">
                    <mxGeometry width="50" height="50" relative="1" as="geometry">
                        <mxPoint x="680" y="980" as="sourcePoint"/>
                        <mxPoint x="730" y="1010.0044827586205" as="targetPoint"/>
                        <Array as="points">
                            <mxPoint x="665" y="1000"/>
                            <mxPoint x="735" y="1000"/>
                        </Array>
                    </mxGeometry>
                </mxCell>
                <mxCell id="57" value="" style="edgeStyle=segmentEdgeStyle;endArrow=classic;html=1;curved=0;rounded=0;endSize=8;startSize=8;exitX=0.165;exitY=1.031;exitDx=0;exitDy=0;exitPerimeter=0;entryX=0.445;entryY=-0.023;entryDx=0;entryDy=0;entryPerimeter=0;" parent="1" source="16" edge="1" target="17">
                    <mxGeometry width="50" height="50" relative="1" as="geometry">
                        <mxPoint x="560" y="990" as="sourcePoint"/>
                        <mxPoint x="500" y="1040.0000000000005" as="targetPoint"/>
                        <Array as="points">
                            <mxPoint x="525" y="1000"/>
                            <mxPoint x="503" y="1000"/>
                        </Array>
                    </mxGeometry>
                </mxCell>
                <mxCell id="59" value="" style="endArrow=classic;html=1;exitX=0.503;exitY=0.984;exitDx=0;exitDy=0;exitPerimeter=0;entryX=0.502;entryY=0.015;entryDx=0;entryDy=0;entryPerimeter=0;" parent="1" source="19" target="23" edge="1">
                    <mxGeometry width="50" height="50" relative="1" as="geometry">
                        <mxPoint x="580" y="1160" as="sourcePoint"/>
                        <mxPoint x="736" y="1140" as="targetPoint"/>
                    </mxGeometry>
                </mxCell>
                <mxCell id="62" value="" style="endArrow=classic;html=1;exitX=0.497;exitY=0.98;exitDx=0;exitDy=0;exitPerimeter=0;" parent="1" source="23" edge="1">
                    <mxGeometry width="50" height="50" relative="1" as="geometry">
                        <mxPoint x="734.66" y="1235" as="sourcePoint"/>
                        <mxPoint x="734.66" y="1260" as="targetPoint"/>
                    </mxGeometry>
                </mxCell>
                <mxCell id="66" value="" style="edgeStyle=segmentEdgeStyle;endArrow=classic;html=1;curved=0;rounded=0;endSize=8;startSize=8;exitX=0.539;exitY=1.014;exitDx=0;exitDy=0;exitPerimeter=0;" parent="1" source="20" edge="1">
                    <mxGeometry width="50" height="50" relative="1" as="geometry">
                        <mxPoint x="729.9999999999991" y="1440" as="sourcePoint"/>
                        <mxPoint x="400" y="1190" as="targetPoint"/>
                        <Array as="points">
                            <mxPoint x="740" y="1460"/>
                            <mxPoint x="400" y="1460"/>
                            <mxPoint x="400" y="1210"/>
                        </Array>
                    </mxGeometry>
                </mxCell>
                <mxCell id="67" value="" style="edgeStyle=segmentEdgeStyle;endArrow=classic;html=1;curved=0;rounded=0;endSize=8;startSize=8;exitX=1;exitY=0.417;exitDx=0;exitDy=0;exitPerimeter=0;" parent="1" source="45" edge="1">
                    <mxGeometry width="50" height="50" relative="1" as="geometry">
                        <mxPoint x="970" y="1180" as="sourcePoint"/>
                        <mxPoint x="600" y="650" as="targetPoint"/>
                        <Array as="points">
                            <mxPoint x="1010" y="1180"/>
                            <mxPoint x="1010" y="650"/>
                        </Array>
                    </mxGeometry>
                </mxCell>
                <mxCell id="71" value="" style="edgeStyle=segmentEdgeStyle;endArrow=classic;html=1;curved=0;rounded=0;endSize=8;startSize=8;exitX=1;exitY=0.5;exitDx=0;exitDy=0;entryX=1;entryY=0.5;entryDx=0;entryDy=0;" parent="1" source="38" target="29" edge="1">
                    <mxGeometry width="50" height="50" relative="1" as="geometry">
                        <mxPoint x="1200" y="800" as="sourcePoint"/>
                        <mxPoint x="1210" y="1580" as="targetPoint"/>
                        <Array as="points">
                            <mxPoint x="1040" y="820"/>
                            <mxPoint x="1040" y="1580"/>
                        </Array>
                    </mxGeometry>
                </mxCell>
                <mxCell id="72" value="" style="edgeStyle=segmentEdgeStyle;endArrow=classic;html=1;curved=0;rounded=0;endSize=8;startSize=8;entryX=0.75;entryY=0;entryDx=0;entryDy=0;exitX=0.5;exitY=1;exitDx=0;exitDy=0;" parent="1" source="29" target="27" edge="1">
                    <mxGeometry width="50" height="50" relative="1" as="geometry">
                        <mxPoint x="620" y="1640" as="sourcePoint"/>
                        <mxPoint x="540" y="1690" as="targetPoint"/>
                        <Array as="points">
                            <mxPoint x="585" y="1670"/>
                            <mxPoint x="440" y="1670"/>
                        </Array>
                    </mxGeometry>
                </mxCell>
                <mxCell id="73" value="" style="edgeStyle=segmentEdgeStyle;endArrow=classic;html=1;curved=0;rounded=0;endSize=8;startSize=8;exitX=0.5;exitY=1;exitDx=0;exitDy=0;exitPerimeter=0;startArrow=none;" parent="1" source="74" edge="1" target="76">
                    <mxGeometry width="50" height="50" relative="1" as="geometry">
                        <mxPoint x="390" y="550" as="sourcePoint"/>
                        <mxPoint x="390" y="2080" as="targetPoint"/>
                        <Array as="points">
                            <mxPoint x="-200" y="1750"/>
                            <mxPoint x="30" y="1750"/>
                            <mxPoint x="30" y="1870"/>
                            <mxPoint x="380" y="1870"/>
                        </Array>
                    </mxGeometry>
                </mxCell>
                <mxCell id="75" value="" style="edgeStyle=segmentEdgeStyle;endArrow=none;html=1;curved=0;rounded=0;endSize=8;startSize=8;exitX=0.5;exitY=1;exitDx=0;exitDy=0;exitPerimeter=0;" parent="1" source="4" target="74" edge="1">
                    <mxGeometry width="50" height="50" relative="1" as="geometry">
                        <mxPoint x="390" y="530" as="sourcePoint"/>
                        <mxPoint x="-310" y="1950" as="targetPoint"/>
                        <Array as="points">
                            <mxPoint x="390" y="540"/>
                            <mxPoint x="-190" y="540"/>
                            <mxPoint x="-190" y="1220"/>
                        </Array>
                    </mxGeometry>
                </mxCell>
                <mxCell id="74" value="&lt;font style=&quot;font-size: 24px;&quot;&gt;系统异常&lt;/font&gt;" style="shape=ext;double=1;rounded=0;whiteSpace=wrap;html=1;" parent="1" vertex="1">
                    <mxGeometry x="-260" y="1190" width="120" height="80" as="geometry"/>
                </mxCell>
                <mxCell id="76" value="&lt;font style=&quot;font-size: 24px;&quot;&gt;结束&lt;/font&gt;" style="rounded=1;whiteSpace=wrap;html=1;arcSize=50;" parent="1" vertex="1">
                    <mxGeometry x="310" y="1890" width="120" height="60" as="geometry"/>
                </mxCell>
                <mxCell id="77" value="" style="edgeStyle=segmentEdgeStyle;endArrow=classic;html=1;curved=0;rounded=0;endSize=8;startSize=8;exitX=0.5;exitY=1;exitDx=0;exitDy=0;" parent="1" source="27" edge="1">
                    <mxGeometry width="50" height="50" relative="1" as="geometry">
                        <mxPoint x="380" y="1850" as="sourcePoint"/>
                        <mxPoint x="390" y="420" as="targetPoint"/>
                        <Array as="points">
                            <mxPoint x="380" y="1840"/>
                            <mxPoint x="1080" y="1840"/>
                            <mxPoint x="1080" y="420"/>
                        </Array>
                    </mxGeometry>
                </mxCell>
            </root>
        </mxGraphModel>
    </diagram>
</mxfile>